:SAMPLES-PER-SECOND 30
:FULLY-SPECIFIED
:DEGREES
253
root  -8.10938 31.5149 6.84128 147.959 -55.4265 -160.141
RightUpLeg  -28.0606 -11.0179 11.5243
RightLeg  83.4241 0.477836 2.38883
RightFoot  -9.39327 -0.100962 2.03143
RightToes  5.82063e-011 0 -3.6325e-017
Spine  30.3359 0.657386 2.53692
Spine1  3.78706 0.362222 4.90995
HEad  -16.5685 38.9575 -8.43986
LeftShoulder1  2.03443 -5.03217 -17.1581
LeftArm  -12.2383 3.07401 -53.4898
LeftForeArm  -18.9319 -55.7531 -18.4035
LeftHand  -0.193659 3.70567 12.4175
RightShoulder  1.42248 2.42937 17.4236
RightArm  -13.367 -10.6802 51.5796
RightForeArm  -29.7683 53.2716 17.4629
RightHand  -0.847583 -1.92884 -28.026
LeftUpLeg  -28.0809 -13.3608 3.03499
LeftLeg  89.0553 -1.026 36.5934
LeftFoot  -8.92115 0.549655 -23.2481
LeftToes  3.99265e-010 -1.33173e-010 6.75004e-011
254
root  -8.14081 31.4696 6.82348 146.201 -53.1062 -159.171
RightUpLeg  -27.827 -12.5022 12.3374
RightLeg  84.0782 0.601524 4.56329
RightFoot  -5.53775 -0.111904 1.45738
RightToes  5.82063e-011 0 -3.6325e-017
Spine  30.5748 1.04692 3.33889
Spine1  3.8631 0.908278 5.54354
HEad  -15.3368 39.6895 -7.28329
LeftShoulder1  1.58562 -3.96284 -14.297
LeftArm  -17.1573 2.26577 -49.7415
LeftForeArm  -2.16889 -69.0117 -32.8304
LeftHand  -0.363641 2.2909 13.3645
RightShoulder  1.31658 2.19421 16.4763
RightArm  -18.6971 -11.6424 47.6766
RightForeArm  -12.9909 68.133 32.3822
RightHand  -0.88532 -1.5083 -26.1784
LeftUpLeg  -28.0894 -14.2605 3.97588
LeftLeg  90.2199 -2.02937 38.8646
LeftFoot  -4.41032 1.47993 -23.7298
LeftToes  3.99265e-010 -1.33173e-010 6.75004e-011
255
root  -8.17851 31.3827 6.85027 146.538 -51.1692 -159.319
RightUpLeg  -28.4005 -12.7885 12.8005
RightLeg  84.6222 0.654816 6.13827
RightFoot  -4.06833 -0.0798336 0.804757
RightToes  5.82063e-011 0 -3.6325e-017
Spine  31.0304 1.14848 3.66462
Spine1  2.37595 1.21812 5.54058
HEad  -14.7036 40.7967 -6.10892
LeftShoulder1  1.06455 -2.07849 -11.9587
LeftArm  -24.0976 3.75753 -44.0308
LeftForeArm  24.7337 -76.9404 -62.0756
LeftHand  -0.508121 1.86261 16.6368
RightShoulder  1.21519 1.90495 15.7801
RightArm  -24.532 -13.6391 43.2121
RightForeArm  16.5835 76.7534 63.1183
RightHand  -1.00552 -0.910873 -25.783
LeftUpLeg  -28.6983 -14.0039 4.57826
LeftLeg  90.8502 -2.64051 40.1137
LeftFoot  -2.5914 1.84432 -23.5974
LeftToes  3.99265e-010 -1.33173e-010 6.75004e-011
256
root  -8.23728 31.3242 6.91072 148.672 -49.9744 -160.135
RightUpLeg  -29.1992 -12.0459 12.8958
RightLeg  84.3995 0.74432 7.14283
RightFoot  -6.42777 -0.0418944 -0.122072
RightToes  5.82063e-011 0 -3.6325e-017
Spine  31.277 1.16351 3.36767
Spine1  -0.327387 1.2967 5.33692
HEad  -14.1204 41.8853 -5.23066
LeftShoulder1  0.761288 -0.722296 -10.8061
LeftArm  -31.5698 8.4926 -37.8393
LeftForeArm  47.9059 -78.3121 -88.9194
LeftHand  -0.689992 1.61116 20.9889
RightShoulder  1.13111 1.60823 15.4101
RightArm  -30.6356 -17.221 38.8687
RightForeArm  43.7674 78.0451 92.665
RightHand  -1.29322 0.0364494 -27.302
LeftUpLeg  -29.3501 -12.9777 4.65339
LeftLeg  90.5667 -2.43161 40.508
LeftFoot  -4.69535 1.38274 -23.0048
LeftToes  3.99265e-010 -1.33173e-010 6.75004e-011
257
root  -8.30908 31.3189 6.98911 152.147 -49.8482 -161.39
RightUpLeg  -29.8289 -10.6332 12.6068
RightLeg  83.0242 0.863931 6.66675
RightFoot  -12.6974 -0.0900575 -0.616771
RightToes  5.82063e-011 0 -3.6325e-017
Spine  31.1129 0.956384 2.50229
Spine1  -3.29609 0.951852 5.00565
HEad  -14.1913 42.7851 -5.3331
LeftShoulder1  0.701952 -0.342882 -11.023
LeftArm  -37.7545 15.8402 -32.9091
LeftForeArm  42.3537 -78.1239 -84.6428
LeftHand  -0.926671 1.3447 26.3324
RightShoulder  1.0766 1.35676 15.441
RightArm  -36.0673 -22.7404 35.8669
RightForeArm  44.9961 77.8283 97.0807
RightHand  -1.68618 1.02634 -30.0625
LeftUpLeg  -29.7326 -12.1484 4.23953
LeftLeg  89.361 -1.36398 39.3023
LeftFoot  -10.524 0.220452 -23.3739
LeftToes  3.99265e-010 -1.33173e-010 6.75004e-011
258
root  -8.3574 31.2788 7.08253 156.652 -50.6496 -163.3
RightUpLeg  -30.8016 -8.85453 12.0104
RightLeg  81.1546 0.712507 3.64005
RightFoot  -20.4342 -0.153109 -0.226236
RightToes  5.82063e-011 0 -3.6325e-017
Spine  30.8937 0.38968 1.25032
Spine1  -5.94973 0.155467 4.31215
HEad  -15.9362 43.6023 -6.62956
LeftShoulder1  0.715219 -0.235442 -12.0048
LeftArm  -41.8301 23.0074 -30.8632
LeftForeArm  14.1891 -75.5602 -54.9378
LeftHand  -0.81654 2.51223 32.8009
RightShoulder  1.07415 1.22797 16.048
RightArm  -39.7029 -28.8943 35.165
RightForeArm  22.9606 77.5245 78.0073
RightHand  -1.90201 1.25653 -32.6334
LeftUpLeg  -30.3548 -11.811 3.60277
LeftLeg  87.7441 -0.0704565 35.7542
LeftFoot  -17.9262 -1.34621 -24.868
LeftToes  3.99265e-010 -1.33173e-010 6.75004e-011
